<?xml version="1.0" encoding="UTF-8" standalone="no"?>
<!-- Created with Vectornator (http://vectornator.io/) -->

<svg
   height="165.60001"
   stroke-miterlimit="10"
   style="clip-rule:evenodd;fill-rule:nonzero;stroke-linecap:round;stroke-linejoin:round"
   version="1.1"
   viewBox="0 0 158.39999 165.60001"
   width="158.39999"
   xml:space="preserve"
   id="svg3"
   sodipodi:docname="logo.svg"
   inkscape:version="1.4 (e7c3feb1, 2024-10-09)"
   xmlns:inkscape="http://www.inkscape.org/namespaces/inkscape"
   xmlns:sodipodi="http://sodipodi.sourceforge.net/DTD/sodipodi-0.dtd"
   xmlns="http://www.w3.org/2000/svg"
   xmlns:svg="http://www.w3.org/2000/svg"
   xmlns:vectornator="http://vectornator.io"><sodipodi:namedview
   id="namedview3"
   pagecolor="#ffffff"
   bordercolor="#000000"
   borderopacity="0.25"
   inkscape:showpageshadow="2"
   inkscape:pageopacity="0.0"
   inkscape:pagecheckerboard="0"
   inkscape:deskcolor="#d1d1d1"
   inkscape:zoom="0.52207501"
   inkscape:cx="59.378441"
   inkscape:cy="178.13532"
   inkscape:window-width="1680"
   inkscape:window-height="935"
   inkscape:window-x="0"
   inkscape:window-y="25"
   inkscape:window-maximized="1"
   inkscape:current-layer="svg3" />
<defs
   id="defs1" />
<g
   id="Untitled"
   vectornator:layerName="Untitled"
   transform="translate(-369.387,-136.215)">
<path
   d="m 369.387,219.015 c 0,-45.729 35.459,-82.8 79.2,-82.8 43.741,0 79.2,37.071 79.2,82.8 0,45.729 -35.459,82.8 -79.2,82.8 -43.741,0 -79.2,-37.071 -79.2,-82.8 z"
   fill="#ffffff"
   fill-rule="nonzero"
   opacity="1"
   stroke="none"
   vectornator:layerName="circle"
   id="path1" />
<g
   opacity="1"
   vectornator:layerName="g1124-3-4"
   id="g3">
<path
   d="m 374.208,219.015 c 0,-42.946 33.301,-77.76 74.379,-77.76 41.079,0 74.379,34.814 74.379,77.76 0,42.946 -33.3,77.76 -74.379,77.76 -41.078,0 -74.379,-34.814 -74.379,-77.76 z"
   fill="#000000"
   fill-rule="nonzero"
   opacity="1"
   stroke="#1a1a1a"
   stroke-linecap="butt"
   stroke-linejoin="miter"
   stroke-width="0.1"
   vectornator:layerName="circle"
   id="path2" />
<path
   d="m 445.88,283.94 c -0.032,-0.055 -0.093,-1.816 -0.136,-3.912 -0.043,-2.097 -0.11,-4.234 -0.149,-4.75 l -0.07,-0.937 h 0.687 0.687 l 0.064,0.55 c 0.036,0.302 0.096,2.116 0.135,4.032 0.052,2.536 0.113,3.513 0.224,3.59 0.084,0.058 0.852,0.094 1.707,0.081 l 1.555,-0.025 v 0.7 0.7 l -2.323,0.035 c -1.278,0.02 -2.35,-0.01 -2.381,-0.064 z m 10.566,-0.403 c -0.026,-0.047 -0.162,-0.579 -0.303,-1.183 -0.959,-4.128 -0.551,-7.788 1.015,-9.099 0.422,-0.353 0.571,-0.4 1.265,-0.4 0.673,0 0.862,0.056 1.314,0.388 1.069,0.784 1.986,2.603 2.607,5.168 0.391,1.619 0.709,3.763 0.577,3.9 -0.049,0.05 -0.349,0.095 -0.668,0.1 l -0.581,0.007 -0.262,-1.582 c -0.144,-0.871 -0.316,-1.637 -0.381,-1.703 -0.108,-0.11 -3.728,0.53 -3.878,0.685 -0.062,0.065 0.106,1.045 0.42,2.445 0.108,0.483 0.171,0.905 0.14,0.937 -0.118,0.123 -1.22,0.417 -1.265,0.337 z m 2.567,-5.624 c 0.805,-0.165 1.499,-0.336 1.543,-0.382 0.125,-0.13 -0.422,-1.505 -0.894,-2.249 -0.46,-0.723 -1.042,-1.132 -1.43,-1.004 -0.553,0.182 -1.058,1.452 -1.194,3.003 -0.099,1.121 -0.223,1.081 1.975,0.632 z m -21.304,5.078 c -1.061,-0.205 -2.054,-0.374 -2.208,-0.376 -0.202,-0.002 -0.28,-0.08 -0.28,-0.277 0,-0.151 0.252,-2.056 0.561,-4.233 0.309,-2.177 0.596,-4.212 0.639,-4.523 l 0.077,-0.565 0.622,0.077 c 0.342,0.042 0.65,0.104 0.683,0.139 0.033,0.034 -0.19,1.839 -0.496,4.011 -0.395,2.811 -0.516,3.98 -0.419,4.06 0.075,0.061 0.769,0.219 1.541,0.35 0.773,0.131 1.466,0.278 1.54,0.326 0.165,0.106 -0.019,1.306 -0.208,1.353 -0.068,0.017 -0.992,-0.136 -2.052,-0.342 z m 29.257,-6.908 c -0.965,-2.453 -1.771,-4.551 -1.79,-4.662 -0.046,-0.255 1.06,-0.743 2.514,-1.108 2,-0.502 3.618,-0.118 4.416,1.049 0.325,0.475 0.373,0.658 0.373,1.407 0,1.04 -0.374,1.927 -1.249,2.962 l -0.574,0.678 h 0.988 c 0.543,0 1.251,0.038 1.574,0.084 l 0.586,0.083 -0.085,0.66 c -0.047,0.362 -0.095,0.67 -0.105,0.683 -0.011,0.014 -0.998,-0.025 -2.194,-0.085 -1.197,-0.06 -2.191,-0.093 -2.211,-0.073 -0.02,0.02 0.134,0.482 0.342,1.026 0.208,0.544 0.378,1.06 0.378,1.147 -10e-4,0.132 -0.89,0.611 -1.135,0.611 -0.041,0 -0.864,-2.008 -1.828,-4.462 z m 2.356,-0.566 c 1.393,-1.153 2.066,-2.436 1.682,-3.208 -0.106,-0.213 -0.377,-0.468 -0.603,-0.567 -0.555,-0.243 -1.87,-0.215 -2.749,0.059 -0.844,0.263 -0.857,0.011 0.13,2.5 0.375,0.946 0.738,1.72 0.806,1.72 0.068,0 0.398,-0.227 0.734,-0.504 z m -43.991,3.882 c -0.593,-0.281 -1.348,-1.114 -1.623,-1.792 -0.961,-2.368 0.607,-6.219 2.993,-7.354 0.607,-0.289 0.83,-0.326 1.726,-0.286 0.885,0.039 1.114,0.1 1.637,0.435 0.807,0.519 1.369,1.308 1.559,2.191 0.212,0.985 -0.076,2.484 -0.746,3.881 -0.657,1.371 -1.435,2.271 -2.396,2.769 -0.654,0.34 -0.9,0.397 -1.708,0.394 -0.644,-0.002 -1.103,-0.078 -1.442,-0.238 z m 2.788,-1.61 c 0.682,-0.469 1.285,-1.359 1.756,-2.595 0.642,-1.684 0.513,-2.769 -0.417,-3.489 -0.277,-0.214 -0.531,-0.272 -1.202,-0.272 -0.747,0 -0.917,0.048 -1.389,0.393 -1.577,1.151 -2.477,3.828 -1.781,5.292 0.135,0.284 0.441,0.652 0.68,0.819 0.598,0.418 1.624,0.353 2.353,-0.148 z m -13.709,-5.185 c -0.925,-0.275 -2.826,-1.257 -2.826,-1.459 0,-0.257 1.803,-3.467 3.32,-5.915 1.777,-2.865 1.524,-2.626 2.239,-2.12 1.146,0.811 2.242,2.079 2.745,3.173 0.438,0.952 0.467,1.091 0.467,2.243 0,1.089 -0.039,1.303 -0.342,1.901 -0.497,0.979 -1.013,1.53 -1.811,1.936 -0.609,0.309 -0.877,0.363 -1.951,0.388 -0.768,0.019 -1.474,-0.038 -1.841,-0.147 z m 3.019,-1.504 c 0.307,-0.144 0.663,-0.361 0.791,-0.481 0.806,-0.758 0.991,-2.388 0.418,-3.689 -0.291,-0.66 -1.477,-2.152 -1.71,-2.152 -0.176,0 -3.478,5.513 -3.478,5.808 0,0.108 0.964,0.535 1.555,0.688 0.652,0.169 1.884,0.081 2.424,-0.174 z m 68.216,-3.124 c -2.179,-2.28 -4.66,-5.151 -4.605,-5.328 0.083,-0.266 1.539,-1.384 2.354,-1.809 0.461,-0.24 1.161,-0.506 1.555,-0.591 0.924,-0.199 2.344,-0.087 3.061,0.243 0.756,0.347 1.649,1.226 2.052,2.02 0.294,0.578 0.33,0.79 0.323,1.879 -0.01,1.372 -0.212,2.046 -0.998,3.323 -0.501,0.813 -1.632,2.105 -1.844,2.105 -0.076,0 -0.93,-0.829 -1.898,-1.842 z m 2.883,-1.712 c 0.73,-1.515 0.702,-2.694 -0.088,-3.628 -0.634,-0.75 -1.251,-1.012 -2.403,-1.019 -0.884,-0.005 -1.09,0.042 -1.804,0.415 -1.415,0.738 -1.391,0.665 -0.547,1.676 0.402,0.482 1.429,1.619 2.282,2.527 l 1.55,1.651 0.287,-0.359 c 0.157,-0.197 0.483,-0.765 0.723,-1.263 z m -42.422,-1.562 c -7.812,-0.612 -14.574,-2.875 -20.9,-6.997 -5.906,-3.847 -10.523,-8.751 -14.345,-15.236 -3.094,-5.25 -5.116,-11.347 -6.017,-18.142 -0.221,-1.672 -0.221,-9.184 0,-10.856 1.299,-9.801 4.959,-18.135 11.086,-25.246 2.543,-2.95 5.357,-5.463 8.592,-7.672 5.441,-3.714 11.934,-6.233 18.225,-7.068 4.577,-0.607 7.366,-0.607 11.943,0 6.982,0.927 14.12,3.893 19.842,8.245 1.579,1.201 3.341,2.689 4.47,3.776 1.253,1.207 3.772,4.164 5.041,5.919 4.098,5.668 7.066,12.789 8.139,19.526 0.527,3.313 0.574,3.964 0.574,7.948 0,3.985 -0.047,4.635 -0.574,7.948 -0.758,4.76 -2.498,9.883 -4.828,14.216 -2.487,4.622 -5.7,8.805 -9.29,12.093 -6.868,6.29 -15.056,10.116 -24.183,11.3 -1.481,0.192 -6.455,0.349 -7.775,0.246 z m -4.416,-21.963 c 0,-7.316 0.026,-8.609 0.177,-8.669 0.271,-0.108 0.599,-0.934 0.591,-1.489 -0.019,-1.445 -1.616,-2.262 -2.738,-1.4 -0.841,0.646 -0.889,2.143 -0.091,2.832 0.173,0.149 0.195,1.034 0.195,7.841 v 7.674 h -6.842 -6.843 v -16.995 -16.994 h -0.933 -0.933 v 17.899 17.899 h 8.709 8.708 z m -3.732,-7.233 v -12.084 h 11.942 11.943 v -4.781 -4.782 h -11.891 -11.891 l 0.05,-4.879 c 0.046,-4.535 0.068,-4.931 0.308,-5.633 0.676,-1.974 2.29,-3.472 4.127,-3.831 0.427,-0.084 5.413,-0.132 13.716,-0.132 h 13.045 v -4.593 -4.593 l -14.897,0.047 c -16.26,0.052 -15.705,0.027 -17.844,0.804 -4.278,1.552 -7.496,5.499 -8.364,10.256 -0.175,0.96 -0.197,3.603 -0.197,23.682 v 22.602 h 4.977 4.976 z m 27.493,-16.93 v -8.594 h -11.819 -11.818 v -2.617 c 10e-4,-2.937 0.075,-3.266 0.858,-3.81 l 0.423,-0.293 h 14.972 14.972 v -8.405 -8.404 l -17.198,0.041 c -17.189,0.042 -17.2,0.042 -18.39,0.325 -5.039,1.2 -9.194,4.587 -11.436,9.323 -1.09,2.302 -1.59,4.574 -1.705,7.743 l -0.078,2.148 -0.398,0.391 c -0.797,0.781 -0.647,2.088 0.315,2.76 0.582,0.406 1.584,0.349 2.065,-0.118 0.844,-0.818 0.897,-1.803 0.144,-2.663 -0.235,-0.268 -0.245,-0.417 -0.187,-2.714 0.052,-2.05 0.11,-2.623 0.374,-3.658 1.472,-5.775 5.641,-9.911 11.413,-11.323 0.861,-0.211 2.17,-0.232 17.074,-0.274 l 16.141,-0.045 v 6.464 6.465 l -14.213,0.035 -14.213,0.035 -0.589,0.282 c -0.829,0.398 -1.748,1.393 -2.002,2.168 -0.175,0.533 -0.208,1.22 -0.208,4.358 v 3.724 h 11.881 11.88 v 6.656 6.656 h -11.943 -11.942 v 0.969 0.969 h 12.813 12.814 z m -66.446,40.185 c -0.779,-1.029 -1.426,-1.914 -1.439,-1.966 -0.013,-0.052 0.817,-0.79 1.845,-1.64 1.028,-0.851 2.662,-2.23 3.631,-3.066 0.969,-0.836 1.8,-1.522 1.846,-1.524 0.046,-0.002 0.738,0.824 1.538,1.834 l 1.455,1.837 -0.481,0.423 c -0.264,0.232 -0.52,0.423 -0.569,0.424 -0.048,0.001 -0.524,-0.547 -1.057,-1.217 -0.554,-0.698 -1.04,-1.196 -1.134,-1.164 -0.266,0.09 -2.249,1.789 -2.254,1.931 -0.002,0.071 0.219,0.42 0.493,0.775 l 0.498,0.646 -0.468,0.418 c -0.446,0.399 -0.775,0.535 -0.783,0.325 -0.002,-0.053 -0.217,-0.353 -0.478,-0.666 l -0.474,-0.57 -0.828,0.69 c -0.456,0.379 -0.828,0.723 -0.828,0.764 0,0.04 0.315,0.48 0.699,0.978 0.384,0.497 0.841,1.098 1.016,1.334 l 0.318,0.43 -0.364,0.315 c -0.752,0.652 -0.648,0.715 -2.182,-1.311 z m 95.742,0.356 c -1.446,-0.522 -3.005,-1.942 -3.679,-3.352 -0.366,-0.768 -0.418,-0.999 -0.421,-1.908 -0.004,-0.877 0.048,-1.146 0.345,-1.773 0.647,-1.37 1.983,-2.165 3.317,-1.975 1.26,0.18 3.156,1.427 4.077,2.68 0.926,1.259 1.087,1.705 1.088,3.007 0.001,1.044 -0.037,1.233 -0.362,1.842 -0.617,1.157 -1.591,1.715 -2.981,1.708 -0.419,-0.003 -1.042,-0.106 -1.384,-0.229 z m 2.379,-1.455 c 1.02,-0.513 1.317,-1.904 0.683,-3.196 -0.328,-0.667 -1.85,-2.121 -2.657,-2.539 -1.194,-0.618 -2.292,-0.351 -2.884,0.702 -0.351,0.624 -0.338,1.687 0.028,2.47 0.663,1.413 2.574,2.806 3.874,2.824 0.235,0.003 0.665,-0.114 0.956,-0.261 z m 2.784,-10.525 c -2.224,-0.876 -4.125,-1.647 -4.224,-1.712 -0.154,-0.1 -0.158,-0.202 -0.025,-0.664 0.087,-0.3 0.231,-0.575 0.321,-0.611 0.09,-0.035 1.221,0.352 2.512,0.861 3.342,1.317 3.307,1.305 3.201,1.121 -0.05,-0.087 -0.892,-1.068 -1.871,-2.18 -0.979,-1.112 -1.78,-2.07 -1.78,-2.128 0,-0.058 0.095,-0.364 0.21,-0.678 l 0.211,-0.572 2.899,0.068 c 1.595,0.038 2.9,0.052 2.9,0.032 0,-0.02 -1.078,-0.661 -2.395,-1.424 -1.317,-0.763 -2.577,-1.501 -2.8,-1.641 l -0.406,-0.252 0.281,-0.522 c 0.155,-0.287 0.342,-0.545 0.415,-0.575 0.073,-0.029 1.948,0.996 4.167,2.278 2.219,1.282 4.091,2.35 4.159,2.374 0.07,0.024 -0.01,0.341 -0.181,0.72 l -0.304,0.676 -1.188,-0.071 c -2.076,-0.124 -5.853,-0.231 -5.853,-0.166 0,0.035 1.013,1.218 2.25,2.629 1.238,1.412 2.279,2.637 2.314,2.724 0.108,0.272 -0.349,1.33 -0.569,1.317 -0.111,-0.007 -2.02,-0.728 -4.244,-1.604 z m -107.488,0.937 c -0.545,-0.917 -0.628,-0.774 2.189,-3.755 1.423,-1.507 2.942,-3.116 3.374,-3.578 l 0.785,-0.838 0.495,0.515 0.495,0.516 -2.687,2.881 c -1.478,1.584 -2.665,2.904 -2.637,2.933 0.028,0.029 1.772,-0.156 3.875,-0.412 2.103,-0.255 3.853,-0.434 3.888,-0.398 0.142,0.148 0.212,1.393 0.077,1.393 -0.075,0 -2.25,0.262 -4.832,0.582 -2.582,0.319 -4.712,0.581 -4.734,0.581 -0.021,0 -0.151,-0.189 -0.288,-0.42 z m -3.905,-9.684 c -0.272,-0.889 -0.336,-1.166 -0.28,-1.225 0.036,-0.037 2.015,-0.664 4.398,-1.393 2.383,-0.729 4.453,-1.365 4.6,-1.414 0.237,-0.079 0.294,-0.011 0.481,0.573 0.116,0.365 0.163,0.706 0.105,0.759 -0.059,0.053 -0.863,0.316 -1.787,0.584 -1.366,0.397 -6.378,1.928 -7.247,2.215 -0.123,0.041 -0.241,-0.002 -0.27,-0.099 z m 117.053,-5.094 c -1.847,-0.312 -3.741,-0.632 -4.208,-0.711 l -0.85,-0.143 0.084,-0.665 c 0.047,-0.366 0.149,-0.73 0.228,-0.809 0.079,-0.079 1.627,-0.83 3.44,-1.668 1.813,-0.838 3.344,-1.567 3.403,-1.62 0.058,-0.053 0.002,-0.127 -0.125,-0.165 -0.126,-0.038 -1.476,-0.429 -2.998,-0.868 -3.006,-0.869 -2.882,-0.788 -2.634,-1.718 0.112,-0.42 0.174,-0.485 0.404,-0.425 1.059,0.277 7.965,2.281 8.006,2.323 0.133,0.139 -0.269,1.282 -0.506,1.438 -0.144,0.095 -1.655,0.829 -3.357,1.63 -2.221,1.046 -3.029,1.482 -2.862,1.544 0.129,0.048 1.577,0.309 3.219,0.58 1.643,0.271 3.028,0.53 3.08,0.575 0.052,0.046 0.058,0.356 0.014,0.69 -0.078,0.599 -0.085,0.606 -0.529,0.593 -0.247,-0.007 -1.961,-0.269 -3.809,-0.581 z m -110.192,-3.238 c -0.035,-0.06 -0.189,-0.923 -0.344,-1.919 -0.154,-0.995 -0.314,-1.847 -0.355,-1.895 -0.09,-0.102 -2.396,0.26 -2.536,0.398 -0.053,0.053 -0.016,0.615 0.082,1.249 0.098,0.634 0.156,1.177 0.129,1.206 -0.071,0.075 -1.224,0.252 -1.282,0.196 -0.026,-0.026 -0.125,-0.55 -0.22,-1.166 -0.095,-0.615 -0.196,-1.159 -0.225,-1.208 -0.029,-0.049 -0.925,0.056 -1.992,0.233 -1.175,0.194 -1.982,0.274 -2.048,0.202 -0.06,-0.066 -0.129,-0.38 -0.152,-0.699 l -0.042,-0.579 0.56,-0.099 c 2.908,-0.516 8.899,-1.495 8.933,-1.46 0.074,0.077 0.816,5.363 0.761,5.419 -0.117,0.118 -1.21,0.224 -1.269,0.122 z m -4.476,-17.535 c -3.626,-0.548 -4.323,-0.687 -4.323,-0.861 0,-0.283 0.728,-5.193 0.777,-5.244 0.022,-0.023 0.318,0.001 0.658,0.053 0.718,0.11 0.684,-0.115 0.362,2.384 -0.118,0.908 -0.185,1.681 -0.151,1.717 0.102,0.105 2.474,0.472 2.549,0.394 0.037,-0.039 0.147,-0.579 0.242,-1.199 0.096,-0.621 0.197,-1.152 0.224,-1.181 0.028,-0.029 0.334,-0.012 0.681,0.038 0.717,0.102 0.694,0.027 0.458,1.525 -0.088,0.554 -0.115,1.036 -0.061,1.071 0.055,0.035 0.969,0.19 2.032,0.345 2.136,0.31 2.046,0.25 1.855,1.244 -0.1,0.52 0.094,0.53 -5.303,-0.286 z m 110.807,-0.661 -0.086,-0.715 2.658,-2.701 c 1.941,-1.973 2.574,-2.687 2.347,-2.649 -0.171,0.03 -1.653,0.313 -3.293,0.63 -1.64,0.318 -3.021,0.535 -3.069,0.483 -0.117,-0.128 -0.28,-1.322 -0.18,-1.322 0.044,0 0.932,-0.171 1.973,-0.38 1.042,-0.209 2.958,-0.587 4.258,-0.842 1.3,-0.254 2.485,-0.49 2.635,-0.525 0.242,-0.056 0.286,0.016 0.418,0.676 l 0.148,0.74 -2.782,2.809 c -1.966,1.984 -2.71,2.811 -2.534,2.817 0.137,0.004 1.527,-0.09 3.09,-0.21 3.193,-0.243 3.063,-0.273 3.066,0.698 0.002,0.506 -0.024,0.549 -0.322,0.549 -0.356,0 -6.412,0.47 -7.535,0.585 l -0.706,0.072 z M 396.594,203.33 c -0.684,-0.234 -2.664,-0.883 -4.4,-1.44 -1.736,-0.558 -3.181,-1.082 -3.212,-1.165 -0.101,-0.275 0.211,-1.211 0.405,-1.211 0.205,0 9.03,2.82 9.121,2.914 0.119,0.124 -0.317,1.286 -0.49,1.307 -0.099,0.012 -0.74,-0.17 -1.424,-0.405 z m 101.689,-3.001 -0.251,-0.607 2.494,-2.593 c 1.372,-1.426 2.494,-2.636 2.494,-2.689 0,-0.053 -1.566,-0.096 -3.481,-0.096 h -3.481 l -0.322,-0.659 c -0.176,-0.362 -0.297,-0.684 -0.266,-0.716 0.03,-0.031 1.923,-1.007 4.207,-2.168 3.107,-1.58 4.188,-2.075 4.296,-1.966 0.08,0.08 0.233,0.369 0.34,0.641 l 0.196,0.495 -2.828,1.444 -2.828,1.443 2.833,0.035 2.833,0.035 0.249,0.417 c 0.542,0.912 0.578,0.841 -1.574,3.081 -1.086,1.129 -1.926,2.054 -1.866,2.054 0.09,0 3.401,-1.071 5.401,-1.747 l 0.537,-0.182 0.164,0.415 c 0.323,0.822 0.337,0.961 0.103,1.029 -0.121,0.035 -2.163,0.711 -4.536,1.502 -2.373,0.791 -4.349,1.438 -4.39,1.438 -0.041,0 -0.187,-0.273 -0.324,-0.606 z m -102.274,-5.52 c -2.305,-0.296 -4.225,-0.572 -4.266,-0.615 -0.041,-0.042 -0.027,-0.36 0.03,-0.706 0.094,-0.565 0.136,-0.627 0.41,-0.603 0.168,0.014 1.774,0.208 3.569,0.429 1.795,0.221 3.383,0.384 3.529,0.361 0.217,-0.034 -0.222,-0.565 -2.424,-2.932 -1.479,-1.59 -2.689,-2.931 -2.689,-2.98 0,-0.164 0.848,-0.944 0.976,-0.897 0.245,0.091 6.737,7.136 6.737,7.311 0,0.098 -0.113,0.408 -0.251,0.689 -0.242,0.492 -0.274,0.512 -0.84,0.496 -0.324,-0.009 -2.475,-0.257 -4.781,-0.553 z m 96.547,-7.485 c -1.659,-0.644 -2.44,-1.841 -2.322,-3.557 0.103,-1.495 0.992,-2.815 2.642,-3.925 3.012,-2.024 6.539,-0.798 6.756,2.349 0.052,0.751 0.014,0.985 -0.257,1.6 -0.487,1.105 -1.702,2.271 -3.142,3.014 -1.069,0.55 -1.274,0.611 -2.203,0.65 -0.654,0.028 -1.187,-0.019 -1.474,-0.131 z m 2.927,-1.754 c 1.769,-0.907 2.885,-2.252 2.773,-3.341 -0.178,-1.718 -2.198,-2.452 -4.09,-1.485 -1.068,0.546 -2.229,1.8 -2.46,2.656 -0.574,2.13 1.515,3.33 3.777,2.17 z m -93.63,-0.901 c -1.966,-1.483 -3.689,-2.777 -3.829,-2.875 -0.247,-0.174 -0.213,-0.242 1.061,-2.086 0.724,-1.048 1.385,-1.906 1.47,-1.906 0.084,0 0.347,0.17 0.584,0.378 0.336,0.294 0.403,0.423 0.307,0.581 -0.069,0.112 -0.476,0.726 -0.905,1.364 l -0.78,1.16 1.183,0.908 c 0.651,0.499 1.235,0.908 1.298,0.908 0.064,0 0.321,-0.291 0.572,-0.646 0.251,-0.356 0.512,-0.647 0.579,-0.647 0.176,0 0.976,0.655 0.976,0.799 0,0.067 -0.196,0.388 -0.435,0.714 -0.24,0.326 -0.436,0.637 -0.436,0.692 0,0.122 1.554,1.285 1.718,1.285 0.064,0 0.526,-0.582 1.025,-1.293 0.499,-0.71 0.97,-1.292 1.045,-1.292 0.075,0 0.343,0.177 0.595,0.393 l 0.459,0.393 -1.374,1.933 c -0.756,1.063 -1.412,1.933 -1.457,1.933 -0.046,0 -1.691,-1.213 -3.656,-2.696 z m 82.505,-7.29 c -0.707,-0.251 -2.17,-1.108 -2.918,-1.711 -0.223,-0.18 -0.228,-0.225 -0.062,-0.508 0.543,-0.923 3.953,-5.301 5.231,-6.715 l 0.694,-0.769 0.598,0.572 c 1.896,1.816 2.756,3.927 2.427,5.956 -0.243,1.498 -1.261,2.796 -2.572,3.282 -0.761,0.282 -2.45,0.229 -3.398,-0.107 z m 2.876,-1.279 c 1.092,-0.392 1.729,-1.416 1.729,-2.781 0,-1.014 -0.31,-1.891 -1.009,-2.852 l -0.529,-0.727 -0.738,0.832 c -0.966,1.088 -3.374,4.218 -3.423,4.45 -0.044,0.2 0.432,0.501 1.469,0.932 0.767,0.318 1.843,0.381 2.501,0.146 z m -71.08,-2.01 c -1.121,-1.463 -2.368,-3.248 -3.687,-5.278 l -1.255,-1.93 0.279,-0.224 c 0.548,-0.44 2.183,-1.259 2.9,-1.453 1.754,-0.475 3.568,-0.105 4.684,0.954 1.011,0.961 1.28,1.615 1.28,3.12 0,1.174 -0.024,1.285 -0.483,2.249 -0.483,1.015 -1.708,2.471 -2.651,3.151 l -0.396,0.286 z m 1.568,-1.863 c 1.575,-1.87 1.746,-3.731 0.454,-4.944 -0.948,-0.889 -2.65,-1.085 -4.041,-0.466 -1.035,0.461 -1.035,0.389 0.017,1.986 1.209,1.834 2.819,4.079 2.927,4.084 0.046,0.003 0.336,-0.295 0.643,-0.66 z m 9.531,-4.035 c -1.267,-0.355 -2.355,-1.45 -2.973,-2.994 -0.724,-1.808 -0.794,-3.446 -0.203,-4.789 0.828,-1.886 2.92,-2.766 4.62,-1.944 2.133,1.032 3.503,5.508 2.383,7.786 -0.425,0.864 -1.321,1.677 -2.12,1.924 -0.736,0.227 -0.95,0.229 -1.707,0.017 z m 2.132,-2.002 c 0.833,-0.976 0.926,-2.184 0.307,-4.035 -0.589,-1.764 -1.29,-2.511 -2.358,-2.511 -1.892,0 -2.798,2.221 -1.895,4.645 0.394,1.06 0.786,1.628 1.491,2.161 0.466,0.353 0.587,0.385 1.254,0.336 0.683,-0.049 0.772,-0.094 1.201,-0.596 z m 39.555,0.311 c -0.849,-0.885 -1.577,-1.588 -1.617,-1.562 -0.039,0.025 -0.237,0.517 -0.438,1.091 -0.201,0.575 -0.406,1.046 -0.454,1.046 -0.049,0 -0.351,-0.117 -0.672,-0.26 -0.46,-0.205 -0.565,-0.307 -0.499,-0.485 0.046,-0.123 0.814,-2.202 1.706,-4.619 0.892,-2.416 1.645,-4.419 1.674,-4.451 0.082,-0.091 0.892,0.231 2.02,0.801 3.099,1.568 4.031,4.373 1.968,5.925 -0.576,0.434 -1.524,0.758 -2.255,0.771 -1.035,0.019 -1.032,0.098 0.053,1.218 0.548,0.566 0.996,1.091 0.996,1.168 0,0.133 -0.758,0.965 -0.879,0.965 -0.032,0 -0.753,-0.723 -1.603,-1.608 z m 2.057,-3.319 c 1.107,-0.289 1.566,-1.133 1.113,-2.043 -0.252,-0.506 -1.206,-1.353 -1.969,-1.748 -0.536,-0.277 -0.653,-0.3 -0.738,-0.141 -0.184,0.34 -1.34,3.585 -1.34,3.759 0,0.094 0.098,0.197 0.218,0.23 0.443,0.12 2.178,0.084 2.716,-0.057 z m -10.398,2.192 c -0.24,-0.071 -0.471,-0.167 -0.515,-0.215 -0.044,-0.048 0.051,-0.814 0.21,-1.702 0.16,-0.889 0.247,-1.661 0.193,-1.717 -0.132,-0.139 -3.757,-0.769 -3.852,-0.67 -0.043,0.044 -0.192,0.817 -0.332,1.718 -0.167,1.07 -0.307,1.634 -0.405,1.625 -0.083,-0.007 -0.375,-0.021 -0.648,-0.032 -0.595,-0.023 -0.594,-0.023 -0.305,-2.046 0.51,-3.572 1.894,-6.482 3.454,-7.267 1.289,-0.648 2.404,-0.218 3.06,1.183 0.821,1.752 0.822,4.641 0.003,8.61 -0.144,0.699 -0.172,0.715 -0.863,0.513 z m 0.079,-6.391 c -0.044,-0.592 -0.196,-1.398 -0.337,-1.791 -0.386,-1.069 -0.866,-1.24 -1.635,-0.581 -0.696,0.596 -1.8,2.664 -1.557,2.917 0.114,0.119 3.364,0.671 3.498,0.595 0.061,-0.035 0.074,-0.548 0.031,-1.14 z m -23.778,6.122 c -0.093,-0.272 -1.928,-8.929 -1.928,-9.094 0,-0.139 1.194,-0.403 1.304,-0.289 0.024,0.025 0.417,1.79 0.874,3.922 0.456,2.133 0.852,3.901 0.879,3.929 0.026,0.028 0.763,-0.095 1.637,-0.274 0.874,-0.179 1.63,-0.287 1.68,-0.24 0.05,0.046 0.106,0.37 0.124,0.718 l 0.033,0.635 -2.053,0.419 c -2.35,0.48 -2.476,0.493 -2.55,0.274 z m 9.017,-1.357 c -10e-4,-0.125 -0.084,-1.971 -0.185,-4.104 -0.1,-2.132 -0.183,-4.182 -0.184,-4.555 l -0.002,-0.679 h 0.684 0.684 l -10e-4,0.55 c -0.001,0.91 0.254,6.453 0.324,7.043 l 0.066,0.549 h 1.671 1.672 v 0.711 0.711 h -2.363 c -2.168,0 -2.364,-0.019 -2.366,-0.226 z"
   fill="#ffffff"
   fill-rule="nonzero"
   opacity="1"
   stroke="none"
   vectornator:layerName="path"
   id="path3" />
</g>
</g>
</svg>
